<?xml version="1.0" encoding="UTF-8" standalone="no"?>
<!-- Created with Inkscape (http://www.inkscape.org/) -->

<svg
   width="48"
   height="48"
   viewBox="0 0 12.7 12.7"
   version="1.1"
   id="svg1"
   inkscape:version="1.4.3 (0d15f75, 2025-12-25)"
   sodipodi:docname="favicon.svg"
   xmlns:inkscape="http://www.inkscape.org/namespaces/inkscape"
   xmlns:sodipodi="http://sodipodi.sourceforge.net/DTD/sodipodi-0.dtd"
   xmlns="http://www.w3.org/2000/svg"
   xmlns:svg="http://www.w3.org/2000/svg">
  <sodipodi:namedview
     id="namedview1"
     pagecolor="#ffffff"
     bordercolor="#000000"
     borderopacity="0.25"
     inkscape:showpageshadow="2"
     inkscape:pageopacity="0.0"
     inkscape:pagecheckerboard="0"
     inkscape:deskcolor="#d1d1d1"
     inkscape:document-units="mm"
     inkscape:zoom="11.502694"
     inkscape:cx="26.472059"
     inkscape:cy="25.863506"
     inkscape:window-width="1920"
     inkscape:window-height="1009"
     inkscape:window-x="-8"
     inkscape:window-y="-8"
     inkscape:window-maximized="1"
     inkscape:current-layer="layer1" />
  <defs
     id="defs1" />
  <g
     inkscape:label="Camada 1"
     inkscape:groupmode="layer"
     id="layer1">
    <g
       id="g2"
       transform="matrix(0.1764957,0,0,0.1764957,-1.5519302,1.5800787)">
      <path
         d="m 16.185766,-8.3748763 v 28.4607033 28.12346 l 0.05756,0.439369 c 0.03206,0.245094 0.09554,0.602582 0.147443,0.832691 0.05311,0.235378 0.160116,0.61102 0.249955,0.879854 0.08856,0.26506 0.222986,0.62719 0.312725,0.838261 0.08954,0.210582 0.280268,0.613564 0.436775,0.926282 0.158813,0.317353 0.408012,0.777235 0.569729,1.048843 0.16176,0.271702 0.406546,0.642456 0.568622,0.861663 l 0.284869,0.386257 0.551905,0.550051 c 0.304339,0.304093 0.735097,0.696682 1.00056,0.906969 h 0.0014 c 0.248896,0.197151 0.5939,0.45626 0.791832,0.593505 0.196166,0.136031 0.500748,0.331484 0.704553,0.450883 0.211431,0.123885 0.602876,0.326533 0.905483,0.471683 0.30369,0.145676 0.715124,0.325755 0.954512,0.415228 0.228744,0.0855 0.563304,0.197228 0.776229,0.258499 0.213392,0.06138 0.564835,0.146818 0.813006,0.197961 0.248056,0.0511 0.61953,0.115505 0.856086,0.147444 0.262444,0.03543 0.780318,0.06569 1.217093,0.07688 l 0.798516,0.0197 0.558963,-0.05865 c 0.310556,-0.03306 0.804871,-0.105982 1.129814,-0.165641 0.300644,-0.05519 0.766764,-0.125855 1.005024,-0.153022 0.238698,-0.02724 0.741444,-0.06785 1.090808,-0.08728 h 0.0014 l 0.637331,-0.03494 1.341884,0.01818 c 0.741222,0.01027 1.626839,0.03623 1.935755,0.05461 h 0.0014 c 0.31908,0.01891 0.767512,0.0598 0.957482,0.08579 0.194173,0.02659 0.58199,0.09551 0.82674,0.148932 0.241465,0.05268 0.669241,0.164426 0.91923,0.239926 0.248445,0.07502 0.68476,0.22707 0.937797,0.325728 0.253007,0.09864 0.667848,0.279406 0.889878,0.387371 0.225295,0.10956 0.604128,0.309456 0.81412,0.430831 0.213142,0.123194 0.553709,0.334373 0.732784,0.453484 0.179663,0.119522 0.529417,0.367938 0.758031,0.53779 0.226293,0.168122 0.593893,0.456964 0.79741,0.627305 0.207801,0.173929 0.524774,0.449023 0.69081,0.599442 l 0.557102,0.505109 0.554507,-0.510679 c 0.165591,-0.152842 0.437077,-0.393128 0.58682,-0.518104 0.144813,-0.120874 0.515568,-0.410945 0.801493,-0.626193 0.282568,-0.212709 0.705213,-0.511686 0.91254,-0.646982 0.214793,-0.140179 0.554457,-0.350502 0.733889,-0.453486 0.183185,-0.10514 0.478978,-0.265125 0.635844,-0.343918 0.152424,-0.07655 0.485223,-0.226507 0.710503,-0.32127 0.219639,-0.09239 0.624452,-0.245605 0.868713,-0.327208 0.244089,-0.08154 0.670917,-0.206507 0.91811,-0.269639 0.246029,-0.06281 0.659159,-0.151029 0.882829,-0.187928 0.233042,-0.03845 0.591628,-0.08763 0.770659,-0.106592 h 0.0014 c 0.05699,-0.0057 0.351199,-0.02242 0.718668,-0.03529 0.367463,-0.01295 0.827718,-0.02551 1.290259,-0.03493 l 1.674661,-0.03378 0.690437,0.03528 c 0.378782,0.01962 0.905354,0.0616 1.138359,0.08839 0.24028,0.0276 0.607727,0.08158 0.782172,0.115138 0.204338,0.03932 0.582495,0.102862 0.859062,0.144475 l 0.513648,0.07725 0.728694,0.02228 0.726839,0.02112 0.526651,-0.04491 c 0.294721,-0.02487 0.744016,-0.08061 1.03288,-0.129253 0.284042,-0.04786 0.661652,-0.125035 0.877624,-0.179757 0.216965,-0.05498 0.583652,-0.167243 0.853485,-0.2611 0.274799,-0.09559 0.68657,-0.26044 0.951537,-0.380313 0.262906,-0.118947 0.65568,-0.3166 0.904002,-0.453485 0.250269,-0.137964 0.621815,-0.364272 0.859053,-0.524797 0.238181,-0.161155 0.631718,-0.453807 0.902514,-0.669643 0.280801,-0.223806 0.714788,-0.614598 1.000935,-0.899913 l 0.515136,-0.513649 0.300471,-0.405574 c 0.169142,-0.228652 0.418455,-0.606147 0.578275,-0.873169 0.16046,-0.268123 0.420252,-0.746454 0.593872,-1.092304 0.175322,-0.349251 0.406588,-0.859773 0.529251,-1.17326 0.119758,-0.306079 0.260869,-0.715635 0.328321,-0.954513 0.06633,-0.234839 0.157046,-0.634312 0.212077,-0.928136 l 0.102502,-0.542993 0.01011,-28.268316 0.0096,-28.5940317 H 44.771062 Z"
         id="path10"
         style="fill:#ffffff;stroke:none;stroke-width:0.71871" />
      <path
         d="M 15.857015,-8.7820047 V 20.006011 48.452912 l 0.05823,0.444422 c 0.03243,0.247914 0.09665,0.609512 0.149139,0.842268 0.05372,0.238085 0.161956,0.618046 0.252828,0.889972 0.08959,0.268109 0.225552,0.634403 0.316322,0.847902 0.09057,0.213004 0.283491,0.62062 0.441798,0.936934 0.16064,0.321004 0.412705,0.786174 0.576282,1.060906 0.163621,0.274826 0.411221,0.649844 0.575162,0.871572 l 0.288144,0.390699 0.558253,0.556377 c 0.307838,0.307591 0.743552,0.704695 1.012068,0.917401 h 0.0014 c 0.251759,0.199417 0.600729,0.461506 0.800939,0.60033 0.198421,0.137595 0.506506,0.335296 0.712655,0.456068 0.213862,0.125309 0.60981,0.330287 0.915896,0.477108 0.307184,0.14735 0.723348,0.329502 0.96549,0.420003 0.231375,0.08648 0.569783,0.199497 0.785157,0.261472 0.215847,0.06209 0.57133,0.148507 0.822356,0.200238 0.250908,0.05169 0.626653,0.116833 0.86593,0.14914 0.265463,0.03584 0.789294,0.06645 1.231092,0.07777 l 0.807699,0.01992 0.565392,-0.05932 c 0.314127,-0.03344 0.814127,-0.1072 1.142807,-0.167545 0.304102,-0.05583 0.775583,-0.127302 1.016582,-0.154782 0.241444,-0.02756 0.749971,-0.06863 1.103354,-0.08828 h 0.0014 l 0.644661,-0.03533 1.357316,0.01839 c 0.749745,0.01039 1.645548,0.03664 1.958017,0.05524 h 0.0014 c 0.322748,0.01912 0.776338,0.06048 0.968492,0.08678 0.196408,0.02689 0.588684,0.09661 0.836249,0.150644 0.244242,0.05329 0.676939,0.166317 0.929803,0.242686 0.251301,0.07588 0.692634,0.229681 0.94858,0.329473 0.255918,0.09977 0.675529,0.28262 0.900114,0.391826 0.227885,0.11082 0.611075,0.313014 0.823482,0.435786 0.215592,0.124611 0.560078,0.338218 0.741212,0.4587 0.181728,0.120896 0.535505,0.372169 0.766748,0.543975 0.228896,0.170055 0.600723,0.462219 0.806581,0.634519 0.21019,0.175929 0.530809,0.454186 0.698755,0.606335 l 0.563509,0.510919 0.560884,-0.516553 c 0.167495,-0.154598 0.442103,-0.397649 0.593569,-0.524063 0.146478,-0.122262 0.521496,-0.41567 0.81071,-0.633393 0.285818,-0.215155 0.713323,-0.51757 0.923035,-0.654423 0.217264,-0.14179 0.560833,-0.354532 0.74233,-0.458701 0.185292,-0.106349 0.484486,-0.268174 0.643156,-0.347873 0.154177,-0.07743 0.490804,-0.229114 0.718674,-0.324965 0.222164,-0.09345 0.631634,-0.248431 0.878704,-0.330971 0.246896,-0.08248 0.678633,-0.208882 0.928669,-0.27274 0.248858,-0.06354 0.666739,-0.152767 0.892981,-0.19009 0.235722,-0.03889 0.598433,-0.08864 0.779523,-0.107818 h 0.0014 c 0.05765,-0.0058 0.355237,-0.02269 0.726934,-0.03569 0.371687,-0.01309 0.837236,-0.02581 1.305097,-0.03533 l 1.693921,-0.03417 0.698376,0.03569 c 0.383139,0.01985 0.915765,0.0623 1.151452,0.08941 0.243042,0.02791 0.614717,0.08252 0.791168,0.116462 0.206686,0.03977 0.589192,0.104045 0.868941,0.146137 l 0.519555,0.07813 0.737074,0.02253 0.735198,0.02137 0.532707,-0.04543 c 0.298111,-0.02516 0.752573,-0.08154 1.044761,-0.130739 0.287308,-0.04841 0.669261,-0.126472 0.887717,-0.181824 0.21946,-0.05561 0.590364,-0.169168 0.8633,-0.264104 0.277959,-0.0967 0.694466,-0.263434 0.96248,-0.384686 0.265928,-0.120315 0.663221,-0.320241 0.914398,-0.458701 0.253148,-0.13955 0.628966,-0.368461 0.868934,-0.530831 0.24092,-0.16301 0.638983,-0.459027 0.912893,-0.677346 0.28403,-0.22638 0.723007,-0.621666 1.012446,-0.910261 l 0.52106,-0.519556 0.303928,-0.41024 c 0.171086,-0.231281 0.423267,-0.613118 0.584924,-0.883211 0.162305,-0.271206 0.425086,-0.755038 0.600701,-1.104866 0.177339,-0.353267 0.411266,-0.86966 0.535339,-1.186753 0.121136,-0.309598 0.263871,-0.723865 0.332097,-0.965491 0.0671,-0.237539 0.158852,-0.641607 0.214517,-0.938809 l 0.103681,-0.549239 0.01021,-28.593417 0.0097,-28.9228824 H 44.77106 Z m 0.976759,0.9752536 h 27.937482 27.938986 l -0.0087,28.0896351 -0.0097,28.420232 -0.07664,0.405725 c -0.04252,0.225988 -0.134577,0.623448 -0.196101,0.847901 -0.05925,0.216101 -0.197469,0.629359 -0.293779,0.87307 -0.09625,0.243515 -0.305737,0.709769 -0.450057,1.003802 -0.145969,0.297384 -0.370619,0.725414 -0.484246,0.923035 -0.114761,0.199591 -0.341017,0.561422 -0.485751,0.775401 -0.139317,0.205981 -0.399168,0.543203 -0.543604,0.707021 -0.146391,0.166048 -0.451242,0.472992 -0.643156,0.647285 -0.199322,0.181017 -0.505365,0.444852 -0.657427,0.566518 -0.155579,0.12448 -0.445338,0.343082 -0.624749,0.471473 -0.174895,0.125149 -0.490091,0.332113 -0.671712,0.441798 -0.179577,0.108451 -0.535657,0.304379 -0.761114,0.417372 -0.227719,0.114128 -0.580317,0.277102 -0.753984,0.349377 -0.168957,0.0703 -0.554785,0.20969 -0.820474,0.295284 -0.255466,0.08229 -0.717997,0.202878 -0.979761,0.25546 -0.265592,0.05336 -0.736055,0.125215 -1.005306,0.153275 l -0.505663,0.05256 H 62.054193 61.37122 l -0.441798,-0.05111 c -0.238151,-0.0277 -0.71296,-0.09962 -1.026346,-0.156279 -0.33302,-0.0602 -0.826673,-0.135741 -1.123265,-0.171682 l -0.53797,-0.06535 h -2.228132 l -2.223247,0.0014 -0.469969,0.04697 c -0.255394,0.02566 -0.611038,0.06782 -0.812214,0.09804 -0.20572,0.03089 -0.543822,0.09653 -0.783659,0.150273 -0.241124,0.05401 -0.617624,0.150528 -0.863299,0.221648 -0.251324,0.07272 -0.657899,0.208977 -0.93431,0.312185 -0.274528,0.102511 -0.663446,0.260752 -0.891848,0.363656 -0.235526,0.106117 -0.638911,0.313908 -0.93431,0.478605 -0.291263,0.162384 -0.656722,0.375876 -0.840385,0.494017 -0.178727,0.114978 -0.503904,0.338567 -0.744214,0.510919 -0.243508,0.174648 -0.631764,0.469445 -0.880208,0.667575 -0.248422,0.198108 -0.590777,0.485751 -0.782532,0.658932 v 0.0014 l -0.08941,0.07965 0.114957,0.100678 c -0.07509,-0.06528 -0.342864,-0.29561 -0.604837,-0.519555 -0.270057,-0.230858 -0.6743,-0.556588 -0.92153,-0.741211 C 43.110349,60.189268 42.73411,59.92262 42.499536,59.765397 42.263894,59.607461 41.907602,59.384236 41.681688,59.2541 41.451003,59.121209 41.022741,58.89972 40.698924,58.743181 40.370062,58.584206 39.894242,58.378304 39.601576,58.27021 39.316077,58.164755 38.87108,58.020697 38.579359,57.938112 38.2904,57.856312 37.873531,57.753316 37.620637,57.702187 37.372208,57.651957 36.991999,57.588219 36.744936,57.55605 36.485994,57.52239 35.974195,57.48256 35.56607,57.46101 l -0.736703,-0.03984 -1.796104,0.01687 -1.803244,0.01731 -0.39333,0.04398 c -0.220914,0.0253 -0.618643,0.08474 -0.910262,0.134869 -0.282438,0.04856 -0.721604,0.121688 -0.974128,0.163039 h -0.0014 l -0.433154,0.07248 -1.037992,0.0014 -1.040623,0.0014 -0.314061,-0.04398 c -0.172505,-0.02421 -0.532343,-0.08643 -0.77652,-0.133364 -0.234589,-0.04515 -0.631255,-0.139005 -0.84189,-0.200238 -0.207071,-0.0602 -0.616628,-0.204186 -0.86894,-0.305425 -0.246787,-0.09902 -0.730081,-0.321389 -1.03536,-0.477108 C 22.302076,56.559344 21.83037,56.285427 21.598552,56.130581 21.360053,55.971271 20.933536,55.657987 20.681529,55.455874 20.42982,55.254 20.036956,54.910089 19.839268,54.719171 19.636675,54.523505 19.35926,54.228097 19.25885,54.107194 c -0.108668,-0.13087 -0.316852,-0.404875 -0.436163,-0.578165 -0.116324,-0.16897 -0.335493,-0.521103 -0.466966,-0.750973 -0.131147,-0.229289 -0.357244,-0.658706 -0.489881,-0.928669 -0.13303,-0.270755 -0.317514,-0.676022 -0.396333,-0.870438 -0.08163,-0.201322 -0.202689,-0.530563 -0.25847,-0.701387 -0.0551,-0.16871 -0.145097,-0.490818 -0.190089,-0.681475 -0.0445,-0.188774 -0.108632,-0.530547 -0.136366,-0.721299 l -0.05111,-0.35201 v -28.33231 z"
         style="baseline-shift:baseline;display:inline;overflow:visible;vector-effect:none;fill:none;fill-opacity:1;stroke:none;stroke-width:0.726976;stroke-opacity:1;enable-background:accumulate;stop-color:#000000"
         id="path8" />
      <path
         style="fill:#1a1a1a;fill-opacity:1;stroke-width:0.726976"
         d="m 45.08198,62.113825 -0.315834,0.291511 -0.317711,-0.287825 c -0.174736,-0.158307 -0.493814,-0.435226 -0.709057,-0.615386 -0.215243,-0.180151 -0.585696,-0.471938 -0.823221,-0.648412 -0.237526,-0.176473 -0.589745,-0.425877 -0.7827,-0.554232 -0.19296,-0.128355 -0.534945,-0.339796 -0.759973,-0.469859 -0.225021,-0.130064 -0.605721,-0.332076 -0.845986,-0.448916 -0.240273,-0.116839 -0.657456,-0.298438 -0.927077,-0.403552 -0.269621,-0.105121 -0.708709,-0.257109 -0.975755,-0.337752 -0.267041,-0.08065 -0.698377,-0.193085 -0.958519,-0.249863 -0.260141,-0.05678 -0.649095,-0.12733 -0.864338,-0.156779 -0.215244,-0.02944 -0.663519,-0.06971 -0.996162,-0.08944 -0.33265,-0.01978 -1.221575,-0.04456 -1.975384,-0.05503 l -1.370569,-0.0192 -0.65734,0.03657 c -0.361532,0.02006 -0.868083,0.06055 -1.125665,0.08997 -0.257582,0.02937 -0.725892,0.100699 -1.040688,0.158466 -0.314796,0.0578 -0.816482,0.131023 -1.114862,0.162792 l -0.542499,0.0578 -0.7827,-0.01992 c -0.430486,-0.01097 -0.966813,-0.04478 -1.191841,-0.07515 -0.225028,-0.03038 -0.603972,-0.0954 -0.842108,-0.144487 -0.238128,-0.04907 -0.595641,-0.136075 -0.794469,-0.193295 -0.198828,-0.05722 -0.540318,-0.170876 -0.758876,-0.252559 -0.218552,-0.08168 -0.639515,-0.264671 -0.935466,-0.406635 -0.295952,-0.141963 -0.696203,-0.350751 -0.889434,-0.46397 -0.19323,-0.113212 -0.503424,-0.311306 -0.689312,-0.440207 -0.185895,-0.1289 -0.538107,-0.392887 -0.782706,-0.586633 -0.244591,-0.193754 -0.686754,-0.594136 -0.98259,-0.88974 L 18.791271,54.56461 18.518778,54.196092 c -0.149866,-0.202689 -0.399474,-0.5818 -0.554676,-0.842479 -0.155202,-0.260672 -0.408931,-0.727224 -0.56385,-1.036785 -0.154918,-0.309553 -0.349363,-0.722047 -0.432107,-0.916644 -0.08274,-0.194604 -0.220623,-0.563836 -0.306392,-0.820524 -0.08577,-0.256688 -0.195441,-0.641804 -0.243711,-0.855812 -0.04827,-0.214007 -0.1125,-0.578033 -0.142735,-0.808957 l -0.05496,-0.419859 V 20.070532 -8.3539076 H 44.77135 73.322348 l -0.01025,28.5596716 -0.01021,28.559682 -0.09664,0.51587 c -0.05314,0.283732 -0.14637,0.69198 -0.207153,0.907223 -0.06078,0.215243 -0.205537,0.634214 -0.32168,0.931047 -0.116141,0.296831 -0.35062,0.817513 -0.521075,1.157055 -0.170446,0.339549 -0.434855,0.826122 -0.587556,1.081269 -0.152709,0.255147 -0.40718,0.639027 -0.565508,0.853055 l -0.287861,0.389159 -0.501818,0.500356 c -0.275996,0.275196 -0.717946,0.672621 -0.982109,0.883167 -0.264161,0.21054 -0.664404,0.507379 -0.889433,0.659637 -0.225021,0.15225 -0.603354,0.383894 -0.84074,0.514757 -0.237381,0.130856 -0.637625,0.331138 -0.889427,0.445062 -0.25181,0.113925 -0.671444,0.281443 -0.932515,0.372264 -0.26108,0.09082 -0.635733,0.205945 -0.832562,0.255837 -0.196829,0.04988 -0.583588,0.128733 -0.859468,0.175202 -0.275873,0.04645 -0.732262,0.103928 -1.014205,0.1277 l -0.512613,0.04319 -0.714801,-0.02123 -0.714798,-0.02123 -0.498082,-0.07502 c -0.273946,-0.04122 -0.658182,-0.105833 -0.853855,-0.143512 -0.19568,-0.03765 -0.563901,-0.09243 -0.818278,-0.121667 -0.254383,-0.02922 -0.782707,-0.06971 -1.174053,-0.08999 l -0.711549,-0.03679 -1.707704,0.03483 c -0.939247,0.01912 -1.867813,0.05176 -2.063487,0.07255 -0.195673,0.02072 -0.555897,0.07073 -0.800488,0.11109 -0.244592,0.04035 -0.660851,0.128558 -0.925012,0.196014 -0.264162,0.06747 -0.693253,0.193798 -0.953539,0.280751 -0.260287,0.08696 -0.667176,0.23967 -0.904206,0.339368 -0.237024,0.0997 -0.570183,0.251192 -0.740353,0.336656 -0.170163,0.08547 -0.4677,0.246248 -0.661193,0.357308 -0.193491,0.111053 -0.53592,0.322058 -0.76094,0.468907 -0.225028,0.146842 -0.649285,0.447766 -0.942802,0.668717 -0.29351,0.220957 -0.66482,0.511202 -0.825125,0.645002 -0.160306,0.133793 -0.433598,0.374444 -0.607302,0.534778 z m 0.01498,-0.329443 c 0.18024,-0.162785 0.524862,-0.453205 0.76584,-0.645381 0.240978,-0.192169 0.630252,-0.487191 0.865066,-0.655602 0.234814,-0.168411 0.563014,-0.393745 0.729332,-0.500741 0.166325,-0.106989 0.53531,-0.324385 0.819971,-0.483091 0.284663,-0.158706 0.692911,-0.367559 0.907224,-0.464116 0.214312,-0.09655 0.605788,-0.256259 0.86995,-0.354896 0.264162,-0.09864 0.672418,-0.234944 0.907224,-0.302894 0.234813,-0.06798 0.614048,-0.165468 0.842747,-0.21669 0.2287,-0.05125 0.569964,-0.11628 0.758368,-0.144559 0.188396,-0.02828 0.54561,-0.07175 0.793807,-0.09668 l 0.451263,-0.04522 2.205793,-6.32e-4 2.205791,-6.25e-4 0.515871,0.06252 c 0.283731,0.03439 0.780031,0.110261 1.102896,0.16863 0.322864,0.05838 0.795058,0.130303 1.049311,0.159855 l 0.46229,0.05372 h 0.70388 0.703882 l 0.52375,-0.05459 c 0.288065,-0.03003 0.755895,-0.10123 1.039627,-0.158263 0.283732,-0.05699 0.742382,-0.176663 1.019221,-0.265841 0.276847,-0.08918 0.658939,-0.226904 0.849102,-0.30605 0.190155,-0.07914 0.539998,-0.241254 0.777429,-0.360253 0.237423,-0.118991 0.591322,-0.312767 0.786429,-0.430596 0.195112,-0.117836 0.507858,-0.323809 0.695003,-0.457726 0.187139,-0.133916 0.475144,-0.351406 0.64,-0.483308 0.164857,-0.131903 0.468478,-0.393077 0.674722,-0.580382 0.206243,-0.187305 0.508207,-0.491676 0.671043,-0.676379 0.162835,-0.184696 0.420592,-0.519933 0.572792,-0.744954 0.152199,-0.225029 0.376996,-0.583545 0.499556,-0.796701 0.122561,-0.213157 0.345663,-0.637791 0.495791,-0.943638 0.150121,-0.305839 0.357418,-0.769839 0.460678,-1.031107 0.103253,-0.261268 0.241494,-0.671195 0.307198,-0.910952 0.06572,-0.239757 0.15678,-0.633982 0.202369,-0.876065 l 0.08289,-0.440148 0.0091,-28.452948 0.0091,-28.4529431 H 44.771285 16.469373 V 20.254573 48.61401 l 0.05496,0.37813 c 0.03024,0.207966 0.09461,0.546227 0.14307,0.751686 0.04849,0.205458 0.137761,0.525655 0.19845,0.71155 0.0607,0.185888 0.180813,0.511805 0.266946,0.724257 0.08613,0.212452 0.269148,0.615342 0.4067,0.895315 0.137558,0.279974 0.363044,0.706513 0.50109,0.947876 0.138045,0.241357 0.355702,0.590923 0.483678,0.776818 0.127985,0.185889 0.332491,0.458156 0.454456,0.605034 0.121972,0.146871 0.395751,0.435073 0.608391,0.640438 0.21264,0.205363 0.602751,0.546729 0.866913,0.758584 0.264161,0.211863 0.688425,0.524224 0.942801,0.69414 0.254377,0.169916 0.722636,0.441623 1.040573,0.60379 0.317943,0.162174 0.796932,0.382681 1.064424,0.490019 0.267491,0.10733 0.674169,0.249738 0.903727,0.316445 0.229564,0.06673 0.623106,0.160866 0.874545,0.209224 0.25144,0.04834 0.60925,0.109287 0.795145,0.135392 l 0.337986,0.04747 1.067317,-0.0014 1.067318,-0.0014 0.462503,-0.0758 c 0.254376,-0.04166 0.694648,-0.115727 0.978379,-0.164515 0.283725,-0.04878 0.683969,-0.107949 0.889433,-0.131466 l 0.373557,-0.04275 1.784997,-0.01665 1.784996,-0.01665 0.725822,0.03831 c 0.399204,0.02108 0.91676,0.06318 1.150134,0.09353 0.233367,0.03038 0.616426,0.09407 0.851232,0.141528 0.234814,0.04747 0.653618,0.150462 0.930682,0.228896 0.277066,0.07843 0.725342,0.224446 0.996162,0.324479 0.270828,0.100035 0.749956,0.306369 1.06473,0.458532 0.314774,0.152164 0.746587,0.377054 0.959591,0.499753 0.212996,0.122699 0.571832,0.346783 0.797405,0.497972 0.225574,0.15119 0.602256,0.418353 0.837063,0.593692 0.234814,0.175347 0.641062,0.501861 0.902774,0.725589 0.261719,0.223727 0.53347,0.456832 0.603885,0.518007 l 0.128035,0.111234 z m 0.310397,-1.933343 -0.644538,0.488258 -0.513674,-0.396965 C 43.966618,59.724 43.556144,59.419797 43.336968,59.266317 43.1178,59.112845 42.686418,58.83554 42.378341,58.650088 42.070262,58.464636 41.546033,58.179255 41.213383,58.01591 40.880737,57.852559 40.424458,57.6471 40.199436,57.559325 c -0.225028,-0.08776 -0.585252,-0.217933 -0.800495,-0.289242 -0.215237,-0.07131 -0.60526,-0.185154 -0.86671,-0.252973 -0.26145,-0.06782 -0.688824,-0.162741 -0.949721,-0.210925 -0.26089,-0.0482 -0.695375,-0.112129 -0.965512,-0.142103 l -0.491168,-0.05452 -1.867806,-0.0386 -1.867806,-0.0386 -0.720194,0.03984 c -0.396101,0.02195 -0.91642,0.0639 -1.156263,0.09324 -0.239837,0.02937 -0.700232,0.100567 -1.023096,0.158249 -0.322865,0.05773 -0.731113,0.125295 -0.907224,0.150245 l -0.320189,0.04536 -0.818278,-0.0014 -0.818276,-0.0014 -0.337986,-0.04471 c -0.185896,-0.02457 -0.530105,-0.08342 -0.764911,-0.130768 -0.234814,-0.04732 -0.56928,-0.127359 -0.743261,-0.177826 -0.173979,-0.05046 -0.470157,-0.148419 -0.658175,-0.217686 C 23.93434,56.376165 23.508331,56.185511 23.175674,56.021723 22.843009,55.857936 22.363271,55.586184 22.109585,55.417831 21.855898,55.249429 21.458591,54.958203 21.226678,54.770607 20.994773,54.58301 20.633582,54.258888 20.424039,54.05034 20.214494,53.841792 19.9296,53.519793 19.790943,53.334785 19.652279,53.149776 19.425266,52.809362 19.286471,52.578314 19.147671,52.347259 18.930952,51.955019 18.804866,51.70667 18.678786,51.45832 18.503112,51.084989 18.414486,50.877059 18.32586,50.669122 18.205829,50.364351 18.147743,50.1998 18.089658,50.035242 18.00136,49.733081 17.951518,49.528335 17.901648,49.323583 17.835973,48.985902 17.805519,48.777936 L 17.750193,48.40054 V 20.788225 -6.8240837 h 27.020949 27.020961 l -5.6e-4,27.5457177 -5.52e-4,27.545732 -0.06979,0.491515 c -0.03839,0.270342 -0.101128,0.622554 -0.139397,0.782699 -0.03824,0.160154 -0.127265,0.456295 -0.197761,0.658104 -0.07052,0.201808 -0.202891,0.538014 -0.294222,0.747121 -0.09133,0.209114 -0.26568,0.574151 -0.387441,0.811196 -0.121769,0.237046 -0.327495,0.60973 -0.457181,0.828201 -0.129678,0.218464 -0.35329,0.552844 -0.49691,0.743057 -0.143615,0.190221 -0.458948,0.539025 -0.700726,0.775125 -0.241777,0.236099 -0.606065,0.561531 -0.809523,0.723174 -0.20346,0.161644 -0.534895,0.404584 -0.73653,0.539861 -0.201634,0.135282 -0.541263,0.342115 -0.754733,0.45963 -0.213476,0.117508 -0.55445,0.287664 -0.75772,0.378107 -0.203271,0.09045 -0.521679,0.219926 -0.707574,0.287724 -0.185887,0.06782 -0.548423,0.177367 -0.80562,0.243478 -0.257205,0.06616 -0.697476,0.155617 -0.97838,0.198887 l -0.51073,0.07868 -0.871646,0.0029 -0.871643,0.0029 -0.320197,-0.04689 c -0.176103,-0.02581 -0.576354,-0.09345 -0.889434,-0.15036 -0.31308,-0.05692 -0.76936,-0.127651 -1.01395,-0.157181 -0.244591,-0.02952 -0.740899,-0.07066 -1.102897,-0.09147 l -0.658183,-0.03781 -1.52982,0.02116 c -0.841402,0.01163 -1.79399,0.03722 -2.116847,0.05692 -0.322864,0.01971 -0.77114,0.05954 -0.996168,0.08849 -0.225029,0.029 -0.642299,0.09951 -0.927273,0.156757 -0.284975,0.05722 -0.77327,0.17787 -1.085108,0.26808 -0.311836,0.09021 -0.799114,0.252734 -1.082845,0.361162 -0.283731,0.108421 -0.772187,0.320451 -1.085456,0.471175 -0.313276,0.150718 -0.785563,0.399525 -1.049529,0.552896 -0.263972,0.153377 -0.672061,0.407469 -0.906875,0.564642 -0.234813,0.157179 -0.716972,0.505495 -1.071468,0.774034 z m -0.57791,-2.041751 c 0.03206,-0.02355 0.33627,-0.229157 0.675972,-0.456948 0.339702,-0.227791 0.777734,-0.506339 0.973406,-0.618999 0.195673,-0.112659 0.587914,-0.320895 0.871645,-0.462749 0.283725,-0.141855 0.674547,-0.325038 0.868483,-0.407064 0.193936,-0.08204 0.562164,-0.225748 0.818278,-0.319374 0.256113,-0.09362 0.721822,-0.244323 1.034901,-0.33489 0.313079,-0.09057 0.83883,-0.220906 1.168332,-0.289649 0.329502,-0.06877 0.841817,-0.155995 1.138474,-0.193899 0.296658,-0.03788 0.811546,-0.0863 1.144196,-0.107564 0.332649,-0.0213 1.517375,-0.0418 2.632716,-0.04566 l 2.027908,-0.0072 0.604815,0.06376 c 0.332651,0.03511 0.884986,0.112158 1.227414,0.171291 0.342434,0.0591 0.766691,0.133479 0.942801,0.165212 l 0.320197,0.05773 0.764909,7.27e-4 0.764911,7.27e-4 0.409142,-0.0631 c 0.225029,-0.03476 0.561233,-0.100444 0.747121,-0.146064 0.185896,-0.04559 0.498081,-0.142714 0.693761,-0.215775 0.195673,-0.07306 0.587913,-0.25032 0.871645,-0.393898 l 0.51587,-0.261064 0.569237,-0.447156 c 0.313079,-0.245929 0.757771,-0.610064 0.988208,-0.809183 l 0.418971,-0.362034 0.207298,-0.304254 c 0.114012,-0.167336 0.308601,-0.480365 0.43242,-0.695601 0.123819,-0.215243 0.333594,-0.615749 0.466173,-0.890008 0.132572,-0.274259 0.306515,-0.694473 0.386541,-0.933808 l 0.14549,-0.435154 0.06936,-0.471495 0.06936,-0.471495 1.6e-4,-13.759527 1.66e-4,-13.759518 H 44.770798 19.741865 l 0.01061,13.955192 0.01062,13.955205 0.06237,0.302408 c 0.03431,0.166319 0.11626,0.463426 0.182073,0.660226 0.06579,0.196807 0.198661,0.534299 0.295218,0.749985 0.09655,0.21568 0.299572,0.615001 0.451154,0.887377 0.151574,0.272376 0.378428,0.650302 0.5041,0.839832 l 0.228511,0.344602 0.293102,0.260453 c 0.1612,0.143252 0.453197,0.389544 0.64887,0.547312 0.195673,0.157776 0.507822,0.405086 0.693658,0.549573 0.185837,0.144493 0.463608,0.332257 0.617277,0.417255 0.153661,0.085 0.441885,0.227907 0.640488,0.317587 0.198603,0.08967 0.518756,0.21645 0.711441,0.281725 0.192693,0.06528 0.496882,0.149714 0.675972,0.18764 0.179091,0.03795 0.469714,0.09037 0.645824,0.116548 l 0.320189,0.04762 0.72934,-5.67e-4 0.729332,-5.6e-4 0.284619,-0.04587 c 0.156539,-0.02523 0.492744,-0.08467 0.74712,-0.132099 0.254385,-0.0474 0.710663,-0.117771 1.013958,-0.156329 0.303294,-0.03853 0.903661,-0.08901 1.334148,-0.112114 l 0.782699,-0.04202 1.938962,0.04028 1.938963,0.04028 0.498081,0.05438 c 0.273946,0.02996 0.73823,0.09581 1.031747,0.146413 0.293509,0.0506 0.787271,0.154431 1.097247,0.230734 0.309968,0.07631 0.790267,0.212132 1.067318,0.301841 0.277051,0.08971 0.749447,0.259581 1.049769,0.37749 0.300317,0.117908 0.828641,0.355266 1.174048,0.527451 0.345401,0.172191 0.828136,0.43311 1.072727,0.579821 0.244592,0.146705 0.692867,0.435408 0.996161,0.641557 l 0.551449,0.374822 z m -0.05833,-39.195602 h 25.02863 V 6.8909644 -4.8317551 H 44.771118 19.742497 V 6.8909644 18.613686 Z"
         id="path6"
         sodipodi:nodetypes="ccsssssssssscccccccccssssssssscssssssscccccccsssssscsssssscsccccccsccccssssssssssccssssssscsccccssscccscsssssssssssssscccccccccssssssssssscssccccsscccscsssssssssccccsssssssscccccccsccccsssssssssssscccccccccsccsssssssssccsccccssccssccssssscccsssssscccccccccccccsscsscsssscccccccccscssscsssssssscccsccsccccsssssssccccccccccc" />
      <path
         style="font-size:26.8765px;font-family:'Roadgeek 2005 Series D';-inkscape-font-specification:'Roadgeek 2005 Series D';fill:#1a1a1a;stroke-width:0.886163"
         d="m 28.719574,43.70071 -5.001877,-8.870519 v 8.870519 h -2.07109 V 30.609857 h 2.07109 l 4.767415,8.36251 v -8.36251 h 2.071089 V 43.70071 Z m 12.954067,-3.77095 c 0,0.599183 -0.110719,1.152778 -0.332156,1.660785 -0.221438,0.508001 -0.540568,0.950875 -0.957391,1.328621 -0.36472,0.325642 -0.79457,0.579643 -1.289546,0.762003 -0.481952,0.169337 -1.002981,0.254006 -1.563087,0.254006 -1.133238,0 -2.103655,-0.299592 -2.91125,-0.898776 -0.794569,-0.612211 -1.413291,-1.419807 -1.856165,-2.422787 l 1.973397,-0.722928 c 0.27354,0.625234 0.651286,1.107186 1.133238,1.445855 0.481951,0.325642 1.035545,0.488463 1.66078,0.488463 0.612208,0 1.100673,-0.18236 1.465393,-0.547079 0.377747,-0.377746 0.566619,-0.84016 0.566619,-1.387239 0,-0.429847 -0.117232,-0.78154 -0.351694,-1.055083 -0.221436,-0.273542 -0.514517,-0.501492 -0.879237,-0.683852 -0.364721,-0.195387 -0.768518,-0.364721 -1.211392,-0.508004 -0.429849,-0.143282 -0.859697,-0.299589 -1.289546,-0.468921 -0.195386,-0.07816 -0.436362,-0.188874 -0.722928,-0.332156 -0.286566,-0.143285 -0.566619,-0.338671 -0.84016,-0.586161 -0.260514,-0.260514 -0.488465,-0.579644 -0.68385,-0.95739 -0.18236,-0.377746 -0.27354,-0.840159 -0.27354,-1.38724 0,-0.638261 0.104206,-1.178828 0.312618,-1.621702 0.208411,-0.4559 0.488464,-0.82062 0.840159,-1.09416 0.36472,-0.286566 0.794569,-0.494978 1.289546,-0.625235 0.508004,-0.130257 1.055084,-0.195386 1.641241,-0.195386 0.924826,0 1.693344,0.240976 2.305553,0.722928 0.625235,0.481952 1.100674,1.133238 1.426317,1.953858 l -1.836627,0.54708 c -0.104206,-0.208411 -0.240976,-0.397284 -0.41031,-0.566619 -0.143283,-0.143282 -0.345182,-0.27354 -0.605697,-0.390771 -0.247488,-0.117232 -0.553593,-0.182361 -0.918313,-0.195386 -0.234463,-0.01303 -0.481952,0.0065 -0.742467,0.05862 -0.247487,0.03907 -0.468925,0.11723 -0.664311,0.234463 -0.195386,0.117232 -0.351694,0.280054 -0.468926,0.488465 -0.117231,0.195385 -0.162821,0.442874 -0.13677,0.742466 0.02604,0.403798 0.201896,0.716415 0.527542,0.937852 0.325644,0.208412 0.722928,0.390772 1.191853,0.54708 0.468926,0.156309 0.970416,0.319131 1.504471,0.488465 0.547081,0.156309 1.048572,0.390772 1.504471,0.703389 0.4559,0.299591 0.833646,0.709901 1.133239,1.23093 0.312617,0.508001 0.468926,1.191852 0.468926,2.051551 z m 6.19538,3.77095 V 33.091257 h -1.191853 v -1.660779 h 0.13677 c 0.27354,0 0.547081,-0.07164 0.82062,-0.214925 0.273541,-0.143283 0.501492,-0.345182 0.683851,-0.605696 h 1.660779 V 43.70071 Z m 6.154663,0 V 33.091257 h -1.191853 v -1.660779 h 0.13677 c 0.273541,0 0.547081,-0.07164 0.82062,-0.214925 0.273541,-0.143283 0.501492,-0.345182 0.683851,-0.605696 h 1.660779 V 43.70071 Z m 13.872405,-3.77095 c 0,0.560105 -0.117232,1.087648 -0.351695,1.582627 -0.221437,0.481951 -0.534054,0.905287 -0.937852,1.270006 -0.390771,0.351697 -0.859697,0.63175 -1.406778,0.84016 -0.54708,0.208415 -1.133237,0.312622 -1.758472,0.312622 -0.625235,0 -1.211392,-0.104207 -1.758473,-0.312622 -0.54708,-0.221437 -1.022518,-0.521029 -1.426316,-0.898776 -0.390771,-0.377746 -0.703389,-0.82062 -0.937853,-1.328622 -0.221436,-0.508002 -0.332155,-1.055083 -0.332155,-1.641244 0,-0.911799 0.117232,-1.817086 0.351694,-2.715861 0.247489,-0.898774 0.592671,-1.758472 1.035546,-2.579092 0.442874,-0.82062 0.970415,-1.576112 1.582624,-2.266476 0.625235,-0.703389 1.315599,-1.309084 2.07109,-1.817088 l 1.055083,1.758472 c -0.403797,0.312618 -0.762004,0.618723 -1.074621,0.918314 -0.299592,0.286566 -0.579645,0.586157 -0.840159,0.898775 -0.24749,0.312617 -0.47544,0.644773 -0.683851,0.996468 -0.208411,0.338669 -0.41031,0.716414 -0.605696,1.133237 0.377746,-0.06513 0.664312,-0.104208 0.859697,-0.11723 0.208412,-0.01303 0.442876,-0.01954 0.70339,-0.01954 0.599184,0 1.165802,0.104206 1.699856,0.312617 0.547081,0.208412 1.02252,0.49498 1.426317,0.859702 0.416823,0.351692 0.742467,0.775028 0.976929,1.270006 0.234463,0.481951 0.351695,0.996468 0.351695,1.543547 z m -2.07109,-0.03904 c 0,-0.247487 -0.06513,-0.488463 -0.195385,-0.722927 -0.117232,-0.234465 -0.286567,-0.436364 -0.508004,-0.605696 -0.208412,-0.169337 -0.462413,-0.306108 -0.762006,-0.410312 -0.286565,-0.104205 -0.592669,-0.156308 -0.918312,-0.156308 -0.325644,0 -0.631748,0.0521 -0.918314,0.156308 -0.27354,0.104204 -0.521028,0.240975 -0.742466,0.410312 -0.208412,0.169332 -0.377746,0.371231 -0.508003,0.605696 -0.117232,0.234464 -0.175847,0.47544 -0.175847,0.722927 0,0.260514 0.05861,0.508004 0.175847,0.742468 0.130257,0.23446 0.299591,0.442872 0.508003,0.625236 0.221438,0.169332 0.468926,0.306101 0.742466,0.410306 0.286566,0.104204 0.59267,0.156307 0.918314,0.156307 0.325643,0 0.631747,-0.0521 0.918312,-0.156307 0.286567,-0.104205 0.534056,-0.240974 0.742467,-0.410306 0.221437,-0.182364 0.397285,-0.390776 0.527543,-0.625236 0.130257,-0.234464 0.195385,-0.481954 0.195385,-0.742468 z"
         id="text1"
         aria-label="NS 116"
         sodipodi:nodetypes="cccccccccccssccsccccsssccccsccscccscccscccscccscccsccccssccccccccssccccsccsscccscsccccccccscccsscccscccscccsscss" />
      <path
         style="font-size:27.0292px;font-family:'Roadgeek 2005 Series D';-inkscape-font-specification:'Roadgeek 2005 Series D';fill:#1a1a1a;stroke-width:0.8912"
         d="m 37.74663,7.2620634 q 0,1.9846088 -0.609137,3.4976286 -0.589488,1.493368 -1.709515,2.357949 -0.373342,0.353693 -0.884232,0.530541 -0.49124,0.176846 -1.002129,0.216145 H 32.794932 28.786416 V 0.69909901 h 4.244312 q 0.49124,0 0.844933,0.0393005 0.373341,0.0196497 0.668085,0.0982476 0.294744,0.0785989 0.530539,0.21614539 0.235795,0.1375468 0.51089,0.3340427 1.041429,0.9038819 1.591617,2.4169004 0.569838,1.4933689 0.569838,3.4583278 z m -2.122157,0 q 0,-1.3361727 -0.294743,-2.3776007 Q 35.054636,3.8430339 34.563396,3.3321446 34.307952,3.0963498 33.973908,2.9391528 33.639865,2.7819558 33.227223,2.7819558 h -2.357951 v 8.9602152 h 2.082857 q 0.51089,0 0.844933,-0.117898 0.353692,-0.117897 0.628787,-0.392992 0.589487,-0.589488 0.884231,-1.6112664 0.314393,-1.0414288 0.314393,-2.3579512 z M 47.72861,13.864327 42.698314,4.943411 v 8.920916 H 40.615457 V 0.69909901 h 2.082857 L 47.492815,9.1091253 V 0.69909901 h 2.082857 V 13.864327 Z m 13.027664,-3.792371 q 0,0.903881 -0.334043,1.670215 -0.334043,0.766333 -0.962831,1.336172 -0.550188,0.49124 -1.296872,0.766334 -0.727035,0.255444 -1.571968,0.255444 -1.709514,0 -2.927789,-0.903881 -1.198625,-0.92353 -1.866712,-2.436548 l 1.98461,-0.727036 q 0.412641,0.943181 1.139676,1.45407 0.727035,0.49124 1.670215,0.49124 0.923531,0 1.473719,-0.550189 0.569839,-0.569838 0.569839,-1.395121 0,-0.6484362 -0.353693,-1.0610783 Q 57.946382,8.5589364 57.396194,8.283842 56.846005,7.9890981 56.177919,7.7729527 55.529482,7.5568073 54.881046,7.3013622 54.586302,7.1834649 54.154011,6.9673195 53.721719,6.7511741 53.309078,6.3778316 52.916086,5.9848399 52.621342,5.4150014 52.346248,4.8451631 52.346248,4.0198804 q 0,-0.9628302 0.314394,-1.6309158 0.314393,-0.6877358 0.844933,-1.1003778 0.550189,-0.43229077 1.296872,-0.62878672 0.766335,-0.19649595 1.650566,-0.19649595 1.395122,0 2.318652,0.72703467 0.94318,0.7270354 1.43442,1.9649594 L 58.359023,3.7054871 Q 58.201827,3.3910938 57.946382,3.1356488 57.730237,2.9195033 57.337245,2.7426569 56.963902,2.5658103 56.413714,2.5461609 q -0.353693,-0.01965 -0.746685,0.05895 -0.373342,0.05895 -0.668086,0.2357949 -0.294744,0.1768465 -0.47159,0.4912398 -0.176846,0.2947439 -0.137547,0.7466848 0.0393,0.6091373 0.530539,0.9431801 0.49124,0.3143934 1.198626,0.550189 0.707384,0.2357947 1.513018,0.4912397 0.825283,0.2357949 1.513018,0.7073853 0.687736,0.4519409 1.139677,1.2379247 0.47159,0.7663336 0.47159,2.0632068 z"
         id="text1-7"
         aria-label="DNS" />
    </g>
  </g>
</svg>
